<svg xmlns="http://www.w3.org/2000/svg" width="348.727" height="62.601" viewBox="0 0 348.727 62.601">
  <g id="Groupe_1" data-name="Groupe 1" transform="translate(-113.01 -78.859)">
    <g id="Logo" transform="translate(113.01 78.859)">
      <g id="Rectangle_7" data-name="Rectangle 7" transform="translate(0 50.442) rotate(-60)" fill="#fff" stroke="#f79256" stroke-width="5">
        <rect width="58.245" height="22.991" rx="11.496" stroke="none"/>
        <rect x="2.5" y="2.5" width="53.245" height="17.991" rx="8.996" fill="none"/>
      </g>
      <g id="Rectangle_10" data-name="Rectangle 10" transform="translate(83.153 62.601) rotate(-120)" fill="#fff" stroke="#f79256" stroke-width="5">
        <rect width="59.011" height="22.991" rx="11.496" stroke="none"/>
        <rect x="2.5" y="2.5" width="54.011" height="17.991" rx="8.996" fill="none"/>
      </g>
      <g id="Union_2" data-name="Union 2" transform="translate(27.964 14.154)" fill="#fff">
        <path d="M 34.50024032592773 40.40686416625977 C 32.94588851928711 40.40692138671875 31.40884971618652 40.00282287597656 30.0552806854248 39.23823165893555 C 28.66424942016602 38.45248413085938 27.50372123718262 37.30045318603516 26.69915962219238 35.90666198730469 L 25.15870094299316 33.23857116699219 L 22.99365043640137 29.48867225646973 L 20.82859992980957 33.23857116699219 L 19.28824996948242 35.9064826965332 C 18.48372077941895 37.30020141601563 17.32318115234375 38.45214080810547 15.93199062347412 39.23794174194336 C 14.57828044891357 40.00257110595703 13.04117012023926 40.40678405761719 11.48683071136475 40.40686416625977 C 9.919440269470215 40.40695190429688 8.367959976196289 39.98956298828125 7.0000901222229 39.19983291625977 C 2.704440355300903 36.71946334838867 1.227050304412842 31.20653343200684 3.706860303878784 26.91064262390137 L 15.09792041778564 7.182712554931641 L 15.11001014709473 7.161782264709473 L 15.12169075012207 7.140622615814209 C 15.55222034454346 6.360542297363281 16.0941104888916 5.652052402496338 16.7323112487793 5.034852504730225 C 17.4453296661377 4.343522548675537 18.26271057128906 3.779682397842407 19.16403007507324 3.356762409210205 L 19.1735897064209 3.352282524108887 L 19.18527030944824 3.346832513809204 L 19.19485092163086 3.342352390289307 L 19.21174049377441 3.334472417831421 C 20.40569114685059 2.779942512512207 21.67317008972168 2.499782562255859 22.98328971862793 2.499782562255859 L 22.99139022827148 2.499782562255859 L 23.0051097869873 2.499772548675537 C 24.30997085571289 2.499772548675537 25.57287979125977 2.777982473373413 26.75876045227051 3.326652526855469 L 26.76107025146484 3.327712535858154 L 26.76337051391602 3.328782558441162 C 27.70529937744141 3.762262582778931 28.55611991882324 4.348452568054199 29.29220962524414 5.071072578430176 L 29.29516983032227 5.073982715606689 L 29.29816818237305 5.076907634735107 L 29.30303001403809 5.081702709197998 C 29.92127990722656 5.689352512359619 30.44538116455078 6.380032539367676 30.8637809753418 7.137502670288086 L 30.87524032592773 7.158232688903809 L 30.88708114624023 7.178742408752441 L 42.2796516418457 26.91082191467285 C 44.7592887878418 31.20644187927246 43.28224182128906 36.71941375732422 38.9869384765625 39.19998168945313 C 37.61960220336914 39.98941421508789 36.06803131103516 40.40680313110352 34.50024032592773 40.40686416625977 Z" stroke="none"/>
        <path d="M 11.4867000579834 37.9068717956543 L 11.48668956756592 37.9068717956543 C 12.61110019683838 37.90681457519531 13.72310066223145 37.61438369750977 14.70246696472168 37.06119537353516 C 15.7048225402832 36.49502563476563 16.54182243347168 35.66360473632813 17.12319946289063 34.65645980834961 L 18.66355514526367 31.98854827880859 L 22.99366760253906 24.48873710632324 L 27.32376670837402 31.98855972290039 L 28.86431121826172 34.65682601928711 C 29.44562339782715 35.66386032104492 30.28263282775879 36.49538421630859 31.28484535217285 37.06150436401367 C 32.26398849487305 37.61458206176758 33.37581253051758 37.90690612792969 34.50014495849609 37.9068603515625 C 35.62974548339844 37.90681457519531 36.74909973144531 37.60524749755859 37.73669052124023 37.03507232666016 C 40.83847808837891 35.24375915527344 41.90511322021484 31.26263809204102 40.11460113525391 28.16084861755371 L 28.7220344543457 8.428771018981934 L 28.69834518432617 8.387748718261719 L 28.67544555664063 8.346293449401855 C 28.37391090393066 7.800393581390381 27.99646759033203 7.302904605865479 27.55031204223633 6.864404678344727 L 27.5471019744873 6.861233234405518 L 27.54597854614258 6.860137939453125 L 27.54082298278809 6.855071544647217 C 27.01092338562012 6.334860324859619 26.3976993560791 5.912527084350586 25.71818923950195 5.599804878234863 L 25.713623046875 5.597704887390137 L 25.70905494689941 5.595593452453613 C 24.85452270507813 5.200238227844238 23.94476699829102 4.999771595001221 23.00662231445313 4.999771595001221 L 22.99364471435547 4.999782562255859 L 22.98330116271973 4.999782562255859 C 22.03962326049805 4.999782562255859 21.12645530700684 5.201682567596436 20.26915550231934 5.599860191345215 L 20.26688957214355 5.60090446472168 L 20.26311111450195 5.602660179138184 L 20.25237846374512 5.60767126083374 L 20.24337768554688 5.611871242523193 L 20.22560691833496 5.620171546936035 C 19.57545280456543 5.925312995910645 18.98639678955078 6.331514835357666 18.47488975524902 6.827460289001465 L 18.47256660461426 6.829704761505127 L 18.47025680541992 6.831949234008789 C 18.01094436645508 7.276149272918701 17.6207447052002 7.786415576934814 17.31048965454102 8.34857177734375 L 17.28712272644043 8.390927314758301 L 17.2629337310791 8.432815551757813 L 5.872011184692383 28.16048240661621 C 4.081289291381836 31.26263809204102 5.148189067840576 35.24369430541992 8.250066757202148 37.03475952148438 C 9.238389015197754 37.60536193847656 10.35760021209717 37.90692520141602 11.4867000579834 37.9068717956543 M 11.48696136474609 42.90686798095703 C 9.53656005859375 42.9069709777832 7.560540199279785 42.41015243530273 5.750100135803223 41.36490631103516 C 0.2511003017425537 38.18970489501953 -1.632599711418152 31.15980529785156 1.54170024394989 25.66080474853516 L 12.93291187286377 5.932626724243164 C 13.47551155090332 4.949460029602051 14.16580009460449 4.039060115814209 14.99435615539551 3.237771272659302 C 15.91546726226807 2.344671487808228 16.96892166137695 1.625226974487305 18.10207748413086 1.093515753746033 C 18.10965538024902 1.089949131011963 18.11737823486328 1.086371421813965 18.12495613098145 1.082826972007751 C 18.13735580444336 1.077038049697876 18.15052223205566 1.070860266685486 18.16294479370117 1.065115809440613 C 19.71349143981934 0.3449464440345764 21.3577709197998 -0.000222164235310629 22.98330497741699 -0.000222164235310629 C 22.98678398132324 -0.000222164235310629 22.99016571044922 -0.0002206532808486372 22.99364471435547 -0.000217520137084648 C 22.99741172790527 -0.0002212568506365642 23.00127792358398 -0.000223162496695295 23.00504493713379 -0.000223162496695295 C 24.62522506713867 -0.000223162496695295 26.26247215270996 0.342423141002655 27.80853271484375 1.057726979255676 C 28.99209976196289 1.602426886558533 30.08962249755859 2.350549221038818 31.04357719421387 3.287060260772705 C 31.04543304443359 3.288871288299561 31.04721069335938 3.29059362411499 31.0490665435791 3.292415857315063 C 31.05196762084961 3.295260190963745 31.05554389953613 3.298815727233887 31.05844497680664 3.301671266555786 C 31.85659980773926 4.086138248443604 32.52438735961914 4.973315715789795 33.0521354675293 5.928727149963379 L 44.4447021484375 25.66080474853516 C 47.61899948120117 31.15980529785156 45.73530197143555 38.18970489501953 40.23720169067383 41.36490631103516 C 38.42710113525391 42.40996170043945 36.45038986206055 42.90678405761719 34.50034332275391 42.9068603515625 C 30.52721214294434 42.90702819824219 26.66324424743652 40.8451042175293 24.53400039672852 37.1565055847168 L 22.99365615844727 34.48859405517578 L 21.45330047607422 37.1565055847168 C 19.32424926757813 40.84476852416992 15.45970630645752 42.90665817260742 11.48696136474609 42.90686798095703 Z" stroke="none" fill="#f79256"/>
      </g>
    </g>
    <text id="M-Games" transform="translate(244.736 123.459)" fill="#fff" font-size="42" font-family="Oxanium-SemiBold, Oxanium" font-weight="600" letter-spacing="0.1em"><tspan x="0" y="0">M</tspan><tspan y="0">-GAMES</tspan></text>
    <line id="Ligne_1" data-name="Ligne 1" x2="211.522" transform="translate(248.269 132.997)" fill="none" stroke="#fff" stroke-width="4"/>
  </g>
</svg>
